<svg width="50" height="50" viewBox="0 0 50 50" fill="none" xmlns="http://www.w3.org/2000/svg">
<path d="M25 3.125C11.1914 3.125 0 12.2168 0 23.4375C0 28.2812 2.08984 32.7148 5.56641 36.2012C4.3457 41.123 0.263672 45.5078 0.214844 45.5566C0 45.7812 -0.0585937 46.1133 0.0683594 46.4062C0.195312 46.6992 0.46875 46.875 0.78125 46.875C7.25586 46.875 12.1094 43.7695 14.5117 41.8555C17.7051 43.0566 21.25 43.75 25 43.75C38.8086 43.75 50 34.6582 50 23.4375C50 12.2168 38.8086 3.125 25 3.125ZM12.5 26.5625C10.7715 26.5625 9.375 25.166 9.375 23.4375C9.375 21.709 10.7715 20.3125 12.5 20.3125C14.2285 20.3125 15.625 21.709 15.625 23.4375C15.625 25.166 14.2285 26.5625 12.5 26.5625ZM25 26.5625C23.2715 26.5625 21.875 25.166 21.875 23.4375C21.875 21.709 23.2715 20.3125 25 20.3125C26.7285 20.3125 28.125 21.709 28.125 23.4375C28.125 25.166 26.7285 26.5625 25 26.5625ZM37.5 26.5625C35.7715 26.5625 34.375 25.166 34.375 23.4375C34.375 21.709 35.7715 20.3125 37.5 20.3125C39.2285 20.3125 40.625 21.709 40.625 23.4375C40.625 25.166 39.2285 26.5625 37.5 26.5625Z" fill="#7200B8" fill-opacity="0.5"/>
</svg>
